<?xml version="1.0" encoding="UTF-8" standalone="no"?>
<!-- Created with Inkscape (http://www.inkscape.org/) -->

<svg
   xmlns:dc="http://purl.org/dc/elements/1.1/"
   xmlns:cc="http://creativecommons.org/ns#"
   xmlns:rdf="http://www.w3.org/1999/02/22-rdf-syntax-ns#"
   xmlns:svg="http://www.w3.org/2000/svg"
   xmlns="http://www.w3.org/2000/svg"
   xmlns:sodipodi="http://sodipodi.sourceforge.net/DTD/sodipodi-0.dtd"
   xmlns:inkscape="http://www.inkscape.org/namespaces/inkscape"
   width="1406"
   height="906"
   viewBox="0 0 372.00416 239.71251"
   id="svg2"
   version="1.1"
   inkscape:version="0.91 r13725"
   sodipodi:docname="facebook page header.svg"
   inkscape:export-filename="/home/mcl/projects/internalpointers/graphics/promos/facebook page header.png"
   inkscape:export-xdpi="96"
   inkscape:export-ydpi="96">
  <defs
     id="defs4" />
  <sodipodi:namedview
     id="base"
     pagecolor="#ffffff"
     bordercolor="#666666"
     borderopacity="1.0"
     inkscape:pageopacity="0.0"
     inkscape:pageshadow="2"
     inkscape:zoom="0.70710678"
     inkscape:cx="66.387279"
     inkscape:cy="95.474923"
     inkscape:document-units="px"
     inkscape:current-layer="layer1"
     showgrid="false"
     inkscape:showpageshadow="false"
     units="px"
     showguides="true"
     inkscape:guide-bbox="true"
     inkscape:window-width="1366"
     inkscape:window-height="744"
     inkscape:window-x="0"
     inkscape:window-y="0"
     inkscape:window-maximized="1"
     showborder="false" />
  <metadata
     id="metadata7">
    <rdf:RDF>
      <cc:Work
         rdf:about="">
        <dc:format>image/svg+xml</dc:format>
        <dc:type
           rdf:resource="http://purl.org/dc/dcmitype/StillImage" />
        <dc:title></dc:title>
      </cc:Work>
    </rdf:RDF>
  </metadata>
  <g
     inkscape:label="Layer 1"
     inkscape:groupmode="layer"
     id="layer1"
     transform="translate(0,-57.287474)">
    <rect
       style="fill:#333333;fill-opacity:1;stroke-width:1.13874924"
       id="rect4168"
       width="219.07501"
       height="83.34375"
       x="-121.70836"
       y="213.6562"
       inkscape:export-filename="/home/mcl/projects/internalpointers/www/public/img/internalpointers-card.png"
       inkscape:export-xdpi="90.000008"
       inkscape:export-ydpi="90.000008" />
    <flowRoot
       xml:space="preserve"
       id="flowRoot3402"
       style="fill:black;stroke:none;stroke-opacity:1;stroke-width:1px;stroke-linejoin:miter;stroke-linecap:butt;fill-opacity:1;font-family:cmti10;font-style:normal;font-weight:normal;font-size:40px;line-height:125%;letter-spacing:0px;word-spacing:0px;-inkscape-font-specification:cmti10;font-stretch:normal;font-variant:normal"><flowRegion
         id="flowRegion3404"><rect
           id="rect3406"
           width="240"
           height="88"
           x="522"
           y="498" /></flowRegion><flowPara
         id="flowPara3408" /></flowRoot>    <flowRoot
       xml:space="preserve"
       id="flowRoot3432"
       style="font-style:normal;font-variant:normal;font-weight:normal;font-stretch:normal;font-size:40px;line-height:125%;font-family:cmti10;-inkscape-font-specification:cmti10;letter-spacing:0px;word-spacing:0px;fill:#000000;fill-opacity:1;stroke:none;stroke-width:1px;stroke-linecap:butt;stroke-linejoin:miter;stroke-opacity:1"
       transform="matrix(0.26458333,0,0,0.26458333,0,57.287474)"><flowRegion
         id="flowRegion3434"><rect
           id="rect3436"
           width="868"
           height="224"
           x="108"
           y="570" /></flowRegion><flowPara
         id="flowPara3438" /></flowRoot>    <flowRoot
       xml:space="preserve"
       id="flowRoot3440"
       style="fill:black;stroke:none;stroke-opacity:1;stroke-width:1px;stroke-linejoin:miter;stroke-linecap:butt;fill-opacity:1;font-family:cmti10;font-style:normal;font-weight:normal;font-size:40px;line-height:125%;letter-spacing:0px;word-spacing:0px;-inkscape-font-specification:cmti10;font-stretch:normal;font-variant:normal"><flowRegion
         id="flowRegion3442"><rect
           id="rect3444"
           width="876"
           height="178"
           x="130"
           y="538" /></flowRegion><flowPara
         id="flowPara3446" /></flowRoot>    <flowRoot
       xml:space="preserve"
       id="flowRoot3448"
       style="fill:black;stroke:none;stroke-opacity:1;stroke-width:1px;stroke-linejoin:miter;stroke-linecap:butt;fill-opacity:1;font-family:cmti10;font-style:normal;font-weight:normal;font-size:40px;line-height:125%;letter-spacing:0px;word-spacing:0px;-inkscape-font-specification:cmti10;font-stretch:normal;font-variant:normal"><flowRegion
         id="flowRegion3450"><rect
           id="rect3452"
           width="1092"
           height="184"
           x="268"
           y="602" /></flowRegion><flowPara
         id="flowPara3454" /></flowRoot>    <g
       transform="matrix(0.45519208,0,0,0.45519208,-95.133693,164.29578)"
       style="font-style:normal;font-variant:normal;font-weight:normal;font-stretch:normal;font-size:10.58333302px;line-height:60.00000238%;font-family:cmr10;-inkscape-font-specification:cmr10;letter-spacing:0px;word-spacing:0px;fill:#000000;fill-opacity:1;stroke:none;stroke-width:0.26458332px;stroke-linecap:butt;stroke-linejoin:miter;stroke-opacity:1"
       id="flowRoot3468">
      <g
         id="g4247"
         transform="matrix(1.1654297,0,0,1.1654297,-30.15112,-47.850014)">
        <path
           id="path4190"
           style="color:#000000;font-size:23.8125px;clip-rule:nonzero;display:inline;overflow:visible;visibility:visible;opacity:1;isolation:auto;mix-blend-mode:normal;color-interpolation:sRGB;color-interpolation-filters:linearRGB;solid-color:#000000;solid-opacity:1;fill:#fd971f;fill-opacity:1;fill-rule:nonzero;stroke:none;stroke-width:0.26458332px;stroke-linecap:butt;stroke-linejoin:miter;stroke-miterlimit:4;stroke-dasharray:none;stroke-dashoffset:0;stroke-opacity:1;color-rendering:auto;image-rendering:auto;shape-rendering:auto;text-rendering:auto;enable-background:accumulate"
           d="m 82.509308,208.06409 q 0,-0.39533 0.337189,-0.56974 l 3.430023,-1.6278 -3.430023,-1.59293 q -0.337189,-0.17441 -0.337189,-0.56973 0,-0.30231 0.209289,-0.52323 0.20929,-0.22091 0.488343,-0.22091 0.186035,0 0.348816,0.1279 l 3.023071,2.20916 -0.348816,-3.86023 -0.02325,-0.0465 q 0,-0.26743 0.209289,-0.45347 0.220917,-0.18603 0.49997,-0.18603 0.255798,0 0.465088,0.17441 0.220916,0.17441 0.220916,0.46509 l 0,0.0465 -0.37207,3.86023 3.023071,-2.20916 q 0.162781,-0.1279 0.348816,-0.1279 0.29068,0 0.488342,0.22091 0.20929,0.22092 0.20929,0.52323 0,0.39532 -0.337189,0.56973 l -3.430023,1.59293 3.430023,1.6278 q 0.337189,0.17441 0.337189,0.56974 0,0.27905 -0.20929,0.51159 -0.197662,0.22092 -0.488342,0.22092 -0.197662,0 -0.348816,-0.11627 l -3.023071,-2.20917 0.37207,3.8486 0,0.0465 q 0,0.27905 -0.220916,0.46509 -0.20929,0.18603 -0.465088,0.18603 -0.279053,0 -0.49997,-0.18603 -0.209289,-0.19766 -0.209289,-0.46509 l 0.02325,-0.0465 0.348816,-3.8486 -3.023071,2.20917 q -0.139527,0.11627 -0.348816,0.11627 -0.267426,0 -0.488343,-0.22092 -0.209289,-0.23254 -0.209289,-0.51159 z"
           inkscape:connector-curvature="0" />
        <path
           id="path4192"
           style="color:#000000;font-size:23.8125px;clip-rule:nonzero;display:inline;overflow:visible;visibility:visible;opacity:1;isolation:auto;mix-blend-mode:normal;color-interpolation:sRGB;color-interpolation-filters:linearRGB;solid-color:#000000;solid-opacity:1;fill:#fd971f;fill-opacity:1;fill-rule:nonzero;stroke:none;stroke-width:0.26458332px;stroke-linecap:butt;stroke-linejoin:miter;stroke-miterlimit:4;stroke-dasharray:none;stroke-dashoffset:0;stroke-opacity:1;color-rendering:auto;image-rendering:auto;shape-rendering:auto;text-rendering:auto;enable-background:accumulate"
           d="m 94.415558,208.06409 q 0,-0.39533 0.337189,-0.56974 l 3.430023,-1.6278 -3.430023,-1.59293 q -0.337189,-0.17441 -0.337189,-0.56973 0,-0.30231 0.209289,-0.52323 0.20929,-0.22091 0.488343,-0.22091 0.186035,0 0.348816,0.1279 l 3.023071,2.20916 -0.348816,-3.86023 -0.02325,-0.0465 q 0,-0.26743 0.209289,-0.45347 0.220917,-0.18603 0.49997,-0.18603 0.255798,0 0.465088,0.17441 0.220916,0.17441 0.220916,0.46509 l 0,0.0465 -0.37207,3.86023 3.023066,-2.20916 q 0.16278,-0.1279 0.34882,-0.1279 0.29068,0 0.48834,0.22091 0.20929,0.22092 0.20929,0.52323 0,0.39532 -0.33719,0.56973 l -3.430019,1.59293 3.430019,1.6278 q 0.33719,0.17441 0.33719,0.56974 0,0.27905 -0.20929,0.51159 -0.19766,0.22092 -0.48834,0.22092 -0.19767,0 -0.34882,-0.11627 l -3.023066,-2.20917 0.37207,3.8486 0,0.0465 q 0,0.27905 -0.220916,0.46509 -0.20929,0.18603 -0.465088,0.18603 -0.279053,0 -0.49997,-0.18603 -0.209289,-0.19766 -0.209289,-0.46509 l 0.02325,-0.0465 0.348816,-3.8486 -3.023071,2.20917 q -0.139527,0.11627 -0.348816,0.11627 -0.267426,0 -0.488343,-0.22092 -0.209289,-0.23254 -0.209289,-0.51159 z"
           inkscape:connector-curvature="0" />
        <path
           id="path4194"
           style="font-style:normal;font-variant:normal;font-weight:normal;font-stretch:normal;font-size:23.8125px;font-family:cmti10;-inkscape-font-specification:cmti10;fill:#cccccc;fill-opacity:1"
           d="m 106.70551,211.77316 0,-0.0698 q 0.38369,-1.43015 1.12783,-2.5231 0.75577,-1.09296 1.965,-1.09296 0.8139,0 1.3255,0.54648 0.5116,0.54648 0.5116,1.38364 0,0.45346 -0.17441,0.97668 l -1.89523,5.11597 q -0.33719,0.91855 -0.33719,1.52316 0,0.61624 0.45346,0.61624 1.4534,0 2.20917,-3.13934 0.0465,-0.13953 0.19766,-0.13953 l 0.4302,0 q 0.093,0 0.15116,0.0698 0.0581,0.0581 0.0581,0.13952 0,0.0233 -0.0233,0.0698 -0.19766,0.82554 -0.59299,1.66269 -0.39532,0.83716 -1.02319,1.40689 -0.62787,0.55811 -1.4534,0.55811 -0.80228,0 -1.3255,-0.54648 -0.5116,-0.5581 -0.5116,-1.38363 0,-0.55811 0.16278,-0.97669 l 1.90686,-5.12759 q 0.33719,-0.91855 0.33719,-1.52317 0,-0.61624 -0.45346,-0.61624 -1.47665,0 -2.23242,3.13935 -0.0698,0.15115 -0.19766,0.15115 l -0.43021,0 q -0.18603,0 -0.18603,-0.22092 z m 3.81372,-7.5693 q 0,-0.47672 0.37207,-0.83716 0.38369,-0.37207 0.86041,-0.37207 0.36044,0 0.59299,0.23254 0.24417,0.22092 0.24417,0.56974 0,0.3023 -0.17441,0.59298 -0.16278,0.27906 -0.46509,0.45346 -0.29068,0.17441 -0.60461,0.17441 -0.32556,0 -0.58136,-0.23254 -0.24417,-0.24417 -0.24417,-0.58136 z"
           inkscape:connector-curvature="0" />
        <path
           id="path4196"
           style="font-style:normal;font-variant:normal;font-weight:normal;font-stretch:normal;font-size:23.8125px;font-family:cmti10;-inkscape-font-specification:cmti10;fill:#cccccc;fill-opacity:1"
           d="m 113.99576,211.74991 q 0.27905,-1.13947 0.48834,-1.80222 0.22092,-0.66275 0.72089,-1.25573 0.51159,-0.60462 1.26736,-0.60462 0.80228,0 1.37201,0.49997 0.56973,0.48834 0.69763,1.30225 1.40689,-1.80222 3.40677,-1.80222 0.74414,0 1.31387,0.30231 0.56974,0.29068 0.87204,0.86041 0.31394,0.55811 0.31394,1.31387 0,0.99994 -0.44184,2.43009 -0.44183,1.41852 -1.08132,3.11609 -0.36045,0.91855 -0.36045,1.52316 0,0.61624 0.47672,0.61624 0.89529,0 1.40689,-0.96506 0.52322,-0.97668 0.8139,-2.17428 0.0465,-0.13953 0.18604,-0.13953 l 0.4302,0 q 0.093,0 0.15116,0.0698 0.0581,0.0581 0.0581,0.13952 0,0.0233 -0.0233,0.0698 -0.19766,0.82554 -0.59299,1.66269 -0.39532,0.83716 -1.03482,1.40689 -0.63949,0.55811 -1.44177,0.55811 -0.82553,0 -1.34876,-0.54648 -0.51159,-0.5581 -0.51159,-1.38363 0,-0.5116 0.19766,-0.97669 0.66275,-1.77896 1.11621,-3.23236 0.45346,-1.4534 0.45346,-2.53473 0,-0.60461 -0.23254,-1.04645 -0.22092,-0.45346 -0.7674,-0.45346 -2.18591,0 -3.67419,3.13935 l -1.56967,6.29031 q -0.0698,0.30231 -0.33719,0.52322 -0.26743,0.22092 -0.59299,0.22092 -0.27905,0 -0.48834,-0.19766 -0.19766,-0.18604 -0.19766,-0.45346 0,-0.11627 0.0233,-0.18604 l 1.79059,-7.15072 q 0.18603,-0.88367 0.18603,-1.279 0,-0.90692 -0.59298,-0.90692 -0.60462,0 -0.96506,0.91855 -0.34882,0.91855 -0.67438,2.2208 -0.0698,0.15115 -0.19766,0.15115 l -0.43021,0 q -0.0698,0 -0.1279,-0.0814 -0.0581,-0.093 -0.0581,-0.16278 z"
           inkscape:connector-curvature="0" />
        <path
           id="path4198"
           style="font-style:normal;font-variant:normal;font-weight:normal;font-stretch:normal;font-size:23.8125px;font-family:cmti10;-inkscape-font-specification:cmti10;fill:#cccccc;fill-opacity:1"
           d="m 127.58795,208.86636 q 0.093,-0.52322 0.31394,-0.52322 l 2.36032,0 0.97668,-3.90674 q 0.0581,-0.22092 0.18604,-0.37207 0.1279,-0.16278 0.33719,-0.2558 0.20929,-0.10464 0.40695,-0.10464 0.3023,0 0.48834,0.18603 0.19766,0.17441 0.19766,0.45346 0,0.11628 -0.0233,0.19767 l -0.95343,3.80209 2.20916,0 q 0.24418,0 0.24418,0.31393 -0.0116,0.0581 -0.0465,0.19767 -0.0349,0.13952 -0.093,0.23254 -0.0581,0.093 -0.17441,0.093 l -2.34869,0 -1.72083,6.8833 q -0.18603,0.72088 -0.18603,1.27899 0,0.90692 0.59298,0.90692 0.97669,0 1.67432,-0.96506 0.70926,-0.96505 1.13947,-2.17428 0.093,-0.13953 0.18603,-0.13953 l 0.43021,0 q 0.093,0 0.15115,0.0698 0.0581,0.0581 0.0581,0.13952 0,0.0465 -0.0233,0.0698 -0.48834,1.39527 -1.44177,2.51148 -0.95343,1.11621 -2.22079,1.11621 -0.59299,0 -1.08133,-0.27905 -0.47672,-0.29068 -0.73252,-0.77902 -0.2558,-0.48835 -0.2558,-1.09296 0,-0.24417 0.093,-0.70926 l 1.7092,-6.83679 -2.20917,0 q -0.24417,0 -0.24417,-0.31394 z"
           inkscape:connector-curvature="0" />
        <path
           id="path4200"
           style="font-style:normal;font-variant:normal;font-weight:normal;font-stretch:normal;font-size:23.8125px;font-family:cmti10;-inkscape-font-specification:cmti10;fill:#cccccc;fill-opacity:1"
           d="m 136.01767,214.67996 q 0,-1.23248 0.44183,-2.40683 0.45346,-1.18597 1.26737,-2.1394 0.8139,-0.95343 1.91849,-1.49991 1.11621,-0.54648 2.37194,-0.54648 0.61624,0 1.16272,0.23255 0.55811,0.23254 0.8953,0.69763 0.34881,0.45346 0.34881,1.09295 0,1.93012 -1.84872,2.48822 -1.8371,0.55811 -4.33695,0.55811 l -0.0698,0 q -0.40695,1.5813 -0.40695,2.56961 0,0.95343 0.40695,1.74408 0.41858,0.77902 1.30225,0.77902 1.25573,0 2.43008,-0.67438 1.18598,-0.686 1.97663,-1.77896 0.0349,-0.0698 0.1744,-0.0698 0.13953,0 0.39533,0.33719 0.0465,0.0232 0.0465,0.13952 0,0.093 -0.0465,0.13953 -0.54648,0.77902 -1.34876,1.36038 -0.80227,0.56974 -1.7557,0.87204 -0.95343,0.30231 -1.91849,0.30231 -0.81391,0 -1.46503,-0.34882 -0.63949,-0.34881 -1.08133,-0.97668 -0.44183,-0.6395 -0.65112,-1.36038 -0.20929,-0.73252 -0.20929,-1.51154 z m 2.29056,-2.1394 q 1.31387,0 2.37195,-0.1279 1.05807,-0.13953 1.89523,-0.67438 0.84878,-0.54648 0.84878,-1.62781 0,-0.61624 -0.41857,-1.01156 -0.41858,-0.39533 -1.03483,-0.39533 -1.38363,0 -2.30218,1.12784 -0.90692,1.11621 -1.36038,2.70914 z"
           inkscape:connector-curvature="0" />
        <path
           id="path4202"
           style="font-style:normal;font-variant:normal;font-weight:normal;font-stretch:normal;font-size:23.8125px;font-family:cmti10;-inkscape-font-specification:cmti10;fill:#cccccc;fill-opacity:1"
           d="m 146.23798,211.74991 q 0.27905,-1.13947 0.48834,-1.80222 0.22092,-0.66275 0.72088,-1.25573 0.5116,-0.60462 1.26737,-0.60462 0.75577,0 1.30225,0.44183 0.5581,0.43021 0.72088,1.17435 1.22086,-1.61618 2.83704,-1.61618 0.54648,0 1.08133,0.16278 0.54648,0.16278 0.90692,0.53485 0.36044,0.36045 0.36044,0.8953 0,0.5581 -0.36044,0.96505 -0.34882,0.39533 -0.8953,0.39533 -0.33718,0 -0.59298,-0.22092 -0.24417,-0.22091 -0.24417,-0.56973 0,-0.39532 0.26742,-0.73251 0.27905,-0.34882 0.66275,-0.45346 -0.48834,-0.36045 -1.23248,-0.36045 -1.7092,0 -2.95331,2.83704 l -1.67432,6.59262 q -0.0698,0.30231 -0.33718,0.52322 -0.26743,0.22092 -0.59299,0.22092 -0.27905,0 -0.48834,-0.19766 -0.19767,-0.18604 -0.19767,-0.45346 0,-0.11627 0.0233,-0.18604 l 1.79059,-7.15072 q 0.18603,-0.88367 0.18603,-1.279 0,-0.90692 -0.59299,-0.90692 -0.60461,0 -0.96505,0.91855 -0.34882,0.91855 -0.67438,2.2208 -0.0698,0.15115 -0.19766,0.15115 l -0.43021,0 q -0.0698,0 -0.1279,-0.0814 -0.0581,-0.093 -0.0581,-0.16278 z"
           inkscape:connector-curvature="0" />
        <path
           id="path4204"
           style="font-style:normal;font-variant:normal;font-weight:normal;font-stretch:normal;font-size:23.8125px;font-family:cmti10;-inkscape-font-specification:cmti10;fill:#cccccc;fill-opacity:1"
           d="m 156.26062,211.74991 q 0.27905,-1.13947 0.48834,-1.80222 0.22092,-0.66275 0.72089,-1.25573 0.5116,-0.60462 1.26736,-0.60462 0.80228,0 1.37201,0.49997 0.56974,0.48834 0.69763,1.30225 1.4069,-1.80222 3.40677,-1.80222 0.74414,0 1.31388,0.30231 0.56973,0.29068 0.87204,0.86041 0.31393,0.55811 0.31393,1.31387 0,0.99994 -0.44183,2.43009 -0.44184,1.41852 -1.08133,3.11609 -0.36045,0.91855 -0.36045,1.52316 0,0.61624 0.47672,0.61624 0.89529,0 1.40689,-0.96506 0.52322,-0.97668 0.8139,-2.17428 0.0465,-0.13953 0.18604,-0.13953 l 0.43021,0 q 0.093,0 0.15115,0.0698 0.0581,0.0581 0.0581,0.13952 0,0.0233 -0.0233,0.0698 -0.19766,0.82554 -0.59299,1.66269 -0.39532,0.83716 -1.03482,1.40689 -0.63949,0.55811 -1.44177,0.55811 -0.82553,0 -1.34875,-0.54648 -0.5116,-0.5581 -0.5116,-1.38363 0,-0.5116 0.19766,-0.97669 0.66275,-1.77896 1.11621,-3.23236 0.45346,-1.4534 0.45346,-2.53473 0,-0.60461 -0.23254,-1.04645 -0.22092,-0.45346 -0.7674,-0.45346 -2.18591,0 -3.67419,3.13935 l -1.56967,6.29031 q -0.0698,0.30231 -0.33719,0.52322 -0.26743,0.22092 -0.59299,0.22092 -0.27905,0 -0.48834,-0.19766 -0.19766,-0.18604 -0.19766,-0.45346 0,-0.11627 0.0232,-0.18604 l 1.79059,-7.15072 q 0.18604,-0.88367 0.18604,-1.279 0,-0.90692 -0.59299,-0.90692 -0.60462,0 -0.96506,0.91855 -0.34881,0.91855 -0.67438,2.2208 -0.0698,0.15115 -0.19766,0.15115 l -0.4302,0 q -0.0698,0 -0.1279,-0.0814 -0.0581,-0.093 -0.0581,-0.16278 z"
           inkscape:connector-curvature="0" />
        <path
           id="path4206"
           style="font-style:normal;font-variant:normal;font-weight:normal;font-stretch:normal;font-size:23.8125px;font-family:cmti10;-inkscape-font-specification:cmti10;fill:#cccccc;fill-opacity:1"
           d="m 170.25977,215.15668 q 0,-1.46503 0.73251,-3.12772 0.73251,-1.67432 1.99988,-2.80215 1.27899,-1.13947 2.76727,-1.13947 0.61624,0 1.13947,0.36044 0.53485,0.36045 0.8139,0.91855 0.0698,-0.34881 0.32556,-0.56973 0.2558,-0.23254 0.62787,-0.23254 0.29068,0 0.48834,0.1744 0.19766,0.17441 0.19766,0.46509 0,0.11627 -0.0232,0.18604 l -1.66269,6.67401 q -0.18603,0.72088 -0.18603,1.27899 0,0.90692 0.59298,0.90692 0.60462,0 0.96506,-0.9418 0.37207,-0.9418 0.65112,-2.19754 0.0465,-0.13953 0.19766,-0.13953 l 0.41858,0 q 0.0814,0 0.15116,0.0814 0.0698,0.0814 0.0698,0.15116 -0.27905,1.0697 -0.39532,1.4534 -0.10465,0.38369 -0.3837,0.9418 -0.26743,0.5581 -0.69763,0.91855 -0.41858,0.36044 -1.0232,0.36044 -0.72088,0 -1.29062,-0.45346 -0.5581,-0.45346 -0.70925,-1.15109 -1.41852,1.60455 -2.83704,1.60455 -1.40689,0 -2.17429,-1.11621 -0.75576,-1.12784 -0.75576,-2.60449 z m 1.69757,1.09295 q 0,0.75577 0.29068,1.38364 0.29068,0.61624 0.96505,0.61624 0.82553,0 1.59293,-0.72088 0.76739,-0.72089 1.26736,-1.5813 l 1.25574,-5.05783 q -0.093,-0.84879 -0.47671,-1.51154 -0.3837,-0.67438 -1.13947,-0.67438 -0.86041,0 -1.55804,0.84879 -0.69764,0.84878 -1.1976,2.1394 -0.48835,1.27899 -0.74415,2.53473 -0.25579,1.24411 -0.25579,2.02313 z"
           inkscape:connector-curvature="0" />
        <path
           id="path4208"
           style="font-style:normal;font-variant:normal;font-weight:normal;font-stretch:normal;font-size:23.8125px;font-family:cmti10;-inkscape-font-specification:cmti10;fill:#cccccc;fill-opacity:1"
           d="m 182.073,216.72635 q 0,-0.1279 0.0465,-0.34882 0.0581,-0.22091 0.0581,-0.38369 l 2.95331,-11.78998 q 0.093,-0.40695 0.11627,-0.6395 0,-0.3837 -1.54641,-0.3837 -0.24418,0 -0.24418,-0.31393 0.0116,-0.0581 0.0465,-0.20929 0.0465,-0.15115 0.10465,-0.23254 0.0698,-0.0814 0.18603,-0.0814 l 3.13935,-0.2558 q 0.29068,0 0.29068,0.3023 l -3.43003,13.69684 q -0.19766,0.54648 -0.19766,1.25574 0,0.90692 0.60462,0.90692 0.60461,0 0.9418,-0.93017 0.34881,-0.93018 0.65112,-2.20917 0.0465,-0.13953 0.18604,-0.13953 l 0.4302,0 q 0.093,0 0.15116,0.0814 0.0698,0.0698 0.0698,0.15116 -0.29068,1.1976 -0.5116,1.84872 -0.20929,0.6395 -0.69763,1.23248 -0.48834,0.59299 -1.26736,0.59299 -0.59299,0 -1.06971,-0.27905 -0.47671,-0.27906 -0.74414,-0.7674 -0.26742,-0.49997 -0.26742,-1.10458 z"
           inkscape:connector-curvature="0" />
        <path
           id="path4210"
           style="font-style:normal;font-variant:normal;font-weight:normal;font-stretch:normal;font-size:23.8125px;font-family:cmti10;-inkscape-font-specification:cmti10;fill:#cccccc;fill-opacity:1"
           d="m 186.4332,224.08636 q 0,-0.12789 0.0698,-0.23254 l 13.26663,-22.89395 q 0.1279,-0.20929 0.40695,-0.20929 0.18604,0 0.32557,0.13953 0.15115,0.1279 0.15115,0.33718 0,0.0698 -0.0814,0.23255 l -13.25501,22.89395 q -0.16278,0.20929 -0.40695,0.20929 -0.19766,0 -0.33719,-0.13953 -0.13952,-0.13952 -0.13952,-0.33719 z"
           inkscape:connector-curvature="0" />
        <path
           id="path4212"
           style="font-style:normal;font-variant:normal;font-weight:normal;font-stretch:normal;font-size:23.8125px;font-family:cmti10;-inkscape-font-specification:cmti10;fill:#cccccc;fill-opacity:1"
           d="m 198.42084,222.92364 q 0.0814,-0.52322 0.3023,-0.52322 0.74415,0 1.03483,-0.13953 0.3023,-0.12789 0.46508,-0.67437 l 2.69751,-10.72028 q 0.18604,-0.49997 0.18604,-1.25574 0,-0.90692 -0.59299,-0.90692 -0.60461,0 -0.96506,0.91855 -0.34881,0.91855 -0.67437,2.2208 -0.0698,0.15115 -0.19767,0.15115 l -0.4302,0 q -0.0698,0 -0.1279,-0.0814 -0.0581,-0.093 -0.0581,-0.16278 0.27905,-1.13947 0.48834,-1.80222 0.22092,-0.66275 0.72089,-1.25573 0.5116,-0.60462 1.26737,-0.60462 0.74414,0 1.30224,0.44183 0.56973,0.44184 0.72089,1.1511 1.38363,-1.59293 2.83703,-1.59293 0.96506,0 1.62781,0.54648 0.66275,0.53485 0.97669,1.39526 0.32556,0.86042 0.32556,1.76734 0,1.10458 -0.43021,2.36032 -0.41858,1.24411 -1.17435,2.31381 -0.75576,1.0697 -1.76733,1.74408 -0.99994,0.66275 -2.1394,0.66275 -0.61625,0 -1.1511,-0.36044 -0.52322,-0.37207 -0.79065,-0.93018 l -1.03482,4.09277 q -0.0581,0.34882 -0.0698,0.40696 0,0.31393 1.5813,0.31393 0.23254,0 0.23254,0.30231 -0.0814,0.31393 -0.13952,0.41858 -0.0465,0.10464 -0.26743,0.10464 l -4.54623,0 q -0.20929,0 -0.20929,-0.30231 z m 4.82528,-6.86004 q 0.11628,0.89529 0.48835,1.54642 0.37207,0.63949 1.11621,0.63949 0.84878,0 1.55804,-0.84878 0.72089,-0.84879 1.20923,-2.11615 0.48834,-1.279 0.74414,-2.54636 0.26743,-1.26736 0.26743,-2.03476 0,-0.49997 -0.11628,-0.9418 -0.11627,-0.44184 -0.40695,-0.74414 -0.27905,-0.31394 -0.75577,-0.31394 -0.8139,0 -1.53479,0.68601 -0.72088,0.686 -1.30224,1.60455 l -1.26737,5.06946 z"
           inkscape:connector-curvature="0" />
        <path
           id="path4214"
           style="font-style:normal;font-variant:normal;font-weight:normal;font-stretch:normal;font-size:23.8125px;font-family:cmti10;-inkscape-font-specification:cmti10;fill:#cccccc;fill-opacity:1"
           d="m 212.87344,214.94739 q 0,-1.16272 0.47672,-2.37195 0.48834,-1.20923 1.34875,-2.24405 0.87204,-1.04645 1.965,-1.63943 1.09296,-0.60462 2.30218,-0.60462 1.06971,0 1.86036,0.53485 0.80227,0.52323 1.22085,1.41852 0.43021,0.88367 0.43021,1.97662 0,1.1511 -0.47672,2.36032 -0.46508,1.20923 -1.3255,2.24405 -0.86041,1.03482 -1.96499,1.65107 -1.10459,0.60461 -2.33707,0.60461 -1.05807,0 -1.86035,-0.53485 -0.80228,-0.53485 -1.22086,-1.43015 -0.41858,-0.89529 -0.41858,-1.96499 z m 1.76734,0.95343 q 0,0.93017 0.45346,1.63943 0.45346,0.70926 1.3255,0.70926 0.98831,0 1.80221,-0.74414 0.81391,-0.74414 1.37201,-1.91849 0.56974,-1.18597 0.83716,-2.41845 0.27905,-1.23249 0.27905,-2.10453 0,-0.58136 -0.18603,-1.12783 -0.18604,-0.54648 -0.60461,-0.88367 -0.40696,-0.34882 -0.99994,-0.34882 -0.99994,0 -1.81385,0.75577 -0.8139,0.75577 -1.34875,1.90686 -0.53485,1.13947 -0.82553,2.3952 -0.29068,1.25574 -0.29068,2.13941 z"
           inkscape:connector-curvature="0" />
        <path
           id="path4216"
           style="font-style:normal;font-variant:normal;font-weight:normal;font-stretch:normal;font-size:23.8125px;font-family:cmti10;-inkscape-font-specification:cmti10;fill:#cccccc;fill-opacity:1"
           d="m 224.40762,211.77316 0,-0.0698 q 0.3837,-1.43015 1.12784,-2.5231 0.75577,-1.09296 1.965,-1.09296 0.8139,0 1.3255,0.54648 0.51159,0.54648 0.51159,1.38364 0,0.45346 -0.1744,0.97668 l -1.89524,5.11597 q -0.33718,0.91855 -0.33718,1.52316 0,0.61624 0.45346,0.61624 1.4534,0 2.20916,-3.13934 0.0465,-0.13953 0.19767,-0.13953 l 0.4302,0 q 0.093,0 0.15116,0.0698 0.0581,0.0581 0.0581,0.13952 0,0.0233 -0.0232,0.0698 -0.19767,0.82554 -0.59299,1.66269 -0.39532,0.83716 -1.02319,1.40689 -0.62787,0.55811 -1.4534,0.55811 -0.80228,0 -1.3255,-0.54648 -0.5116,-0.5581 -0.5116,-1.38363 0,-0.55811 0.16278,-0.97669 l 1.90686,-5.12759 q 0.33719,-0.91855 0.33719,-1.52317 0,-0.61624 -0.45346,-0.61624 -1.47666,0 -2.23242,3.13935 -0.0698,0.15115 -0.19767,0.15115 l -0.4302,0 q -0.18604,0 -0.18604,-0.22092 z m 3.81372,-7.5693 q 0,-0.47672 0.37207,-0.83716 0.3837,-0.37207 0.86042,-0.37207 0.36044,0 0.59298,0.23254 0.24418,0.22092 0.24418,0.56974 0,0.3023 -0.17441,0.59298 -0.16278,0.27906 -0.46509,0.45346 -0.29068,0.17441 -0.60462,0.17441 -0.32556,0 -0.58135,-0.23254 -0.24418,-0.24417 -0.24418,-0.58136 z"
           inkscape:connector-curvature="0" />
        <path
           id="path4218"
           style="font-style:normal;font-variant:normal;font-weight:normal;font-stretch:normal;font-size:23.8125px;font-family:cmti10;-inkscape-font-specification:cmti10;fill:#cccccc;fill-opacity:1"
           d="m 231.69788,211.74991 q 0.27905,-1.13947 0.48834,-1.80222 0.22092,-0.66275 0.72088,-1.25573 0.5116,-0.60462 1.26737,-0.60462 0.80228,0 1.37201,0.49997 0.56973,0.48834 0.69763,1.30225 1.40689,-1.80222 3.40677,-1.80222 0.74414,0 1.31387,0.30231 0.56973,0.29068 0.87204,0.86041 0.31394,0.55811 0.31394,1.31387 0,0.99994 -0.44184,2.43009 -0.44183,1.41852 -1.08133,3.11609 -0.36044,0.91855 -0.36044,1.52316 0,0.61624 0.47672,0.61624 0.89529,0 1.40689,-0.96506 0.52322,-0.97668 0.8139,-2.17428 0.0465,-0.13953 0.18604,-0.13953 l 0.4302,0 q 0.093,0 0.15116,0.0698 0.0581,0.0581 0.0581,0.13952 0,0.0233 -0.0232,0.0698 -0.19767,0.82554 -0.59299,1.66269 -0.39533,0.83716 -1.03482,1.40689 -0.6395,0.55811 -1.44177,0.55811 -0.82553,0 -1.34876,-0.54648 -0.51159,-0.5581 -0.51159,-1.38363 0,-0.5116 0.19766,-0.97669 0.66275,-1.77896 1.11621,-3.23236 0.45346,-1.4534 0.45346,-2.53473 0,-0.60461 -0.23254,-1.04645 -0.22092,-0.45346 -0.7674,-0.45346 -2.18591,0 -3.67419,3.13935 l -1.56968,6.29031 q -0.0698,0.30231 -0.33718,0.52322 -0.26743,0.22092 -0.59299,0.22092 -0.27905,0 -0.48834,-0.19766 -0.19767,-0.18604 -0.19767,-0.45346 0,-0.11627 0.0233,-0.18604 l 1.79059,-7.15072 q 0.18603,-0.88367 0.18603,-1.279 0,-0.90692 -0.59299,-0.90692 -0.60461,0 -0.96505,0.91855 -0.34882,0.91855 -0.67438,2.2208 -0.0698,0.15115 -0.19766,0.15115 l -0.43021,0 q -0.0698,0 -0.1279,-0.0814 -0.0581,-0.093 -0.0581,-0.16278 z"
           inkscape:connector-curvature="0" />
        <path
           id="path4220"
           style="font-style:normal;font-variant:normal;font-weight:normal;font-stretch:normal;font-size:23.8125px;font-family:cmti10;-inkscape-font-specification:cmti10;fill:#cccccc;fill-opacity:1"
           d="m 245.29007,208.86636 q 0.093,-0.52322 0.31393,-0.52322 l 2.36032,0 0.97669,-3.90674 q 0.0581,-0.22092 0.18603,-0.37207 0.1279,-0.16278 0.33719,-0.2558 0.20929,-0.10464 0.40696,-0.10464 0.3023,0 0.48834,0.18603 0.19766,0.17441 0.19766,0.45346 0,0.11628 -0.0232,0.19767 l -0.95343,3.80209 2.20916,0 q 0.24417,0 0.24417,0.31393 -0.0116,0.0581 -0.0465,0.19767 -0.0349,0.13952 -0.093,0.23254 -0.0581,0.093 -0.17441,0.093 l -2.34869,0 -1.72083,6.8833 q -0.18603,0.72088 -0.18603,1.27899 0,0.90692 0.59298,0.90692 0.97669,0 1.67432,-0.96506 0.70926,-0.96505 1.13946,-2.17428 0.093,-0.13953 0.18604,-0.13953 l 0.43021,0 q 0.093,0 0.15115,0.0698 0.0581,0.0581 0.0581,0.13952 0,0.0465 -0.0233,0.0698 -0.48834,1.39527 -1.44177,2.51148 -0.95343,1.11621 -2.2208,1.11621 -0.59298,0 -1.08133,-0.27905 -0.47671,-0.29068 -0.73251,-0.77902 -0.2558,-0.48835 -0.2558,-1.09296 0,-0.24417 0.093,-0.70926 l 1.7092,-6.83679 -2.20917,0 q -0.24417,0 -0.24417,-0.31394 z"
           inkscape:connector-curvature="0" />
        <path
           id="path4222"
           style="font-style:normal;font-variant:normal;font-weight:normal;font-stretch:normal;font-size:23.8125px;font-family:cmti10;-inkscape-font-specification:cmti10;fill:#cccccc;fill-opacity:1"
           d="m 253.71979,214.67996 q 0,-1.23248 0.44183,-2.40683 0.45346,-1.18597 1.26737,-2.1394 0.8139,-0.95343 1.91848,-1.49991 1.11621,-0.54648 2.37195,-0.54648 0.61624,0 1.16272,0.23255 0.55811,0.23254 0.8953,0.69763 0.34881,0.45346 0.34881,1.09295 0,1.93012 -1.84872,2.48822 -1.8371,0.55811 -4.33695,0.55811 l -0.0698,0 q -0.40695,1.5813 -0.40695,2.56961 0,0.95343 0.40695,1.74408 0.41858,0.77902 1.30225,0.77902 1.25573,0 2.43008,-0.67438 1.18597,-0.686 1.97662,-1.77896 0.0349,-0.0698 0.17441,-0.0698 0.13953,0 0.39533,0.33719 0.0465,0.0232 0.0465,0.13952 0,0.093 -0.0465,0.13953 -0.54648,0.77902 -1.34876,1.36038 -0.80228,0.56974 -1.75571,0.87204 -0.95343,0.30231 -1.91848,0.30231 -0.81391,0 -1.46503,-0.34882 -0.6395,-0.34881 -1.08133,-0.97668 -0.44183,-0.6395 -0.65112,-1.36038 -0.20929,-0.73252 -0.20929,-1.51154 z m 2.29056,-2.1394 q 1.31387,0 2.37194,-0.1279 1.05808,-0.13953 1.89524,-0.67438 0.84878,-0.54648 0.84878,-1.62781 0,-0.61624 -0.41858,-1.01156 -0.41858,-0.39533 -1.03482,-0.39533 -1.38363,0 -2.30218,1.12784 -0.90692,1.11621 -1.36038,2.70914 z"
           inkscape:connector-curvature="0" />
        <path
           id="path4224"
           style="font-style:normal;font-variant:normal;font-weight:normal;font-stretch:normal;font-size:23.8125px;font-family:cmti10;-inkscape-font-specification:cmti10;fill:#cccccc;fill-opacity:1"
           d="m 263.94009,211.74991 q 0.27906,-1.13947 0.48835,-1.80222 0.22091,-0.66275 0.72088,-1.25573 0.5116,-0.60462 1.26737,-0.60462 0.75576,0 1.30224,0.44183 0.55811,0.43021 0.72089,1.17435 1.22086,-1.61618 2.83704,-1.61618 0.54647,0 1.08132,0.16278 0.54648,0.16278 0.90693,0.53485 0.36044,0.36045 0.36044,0.8953 0,0.5581 -0.36044,0.96505 -0.34882,0.39533 -0.8953,0.39533 -0.33719,0 -0.59299,-0.22092 -0.24417,-0.22091 -0.24417,-0.56973 0,-0.39532 0.26743,-0.73251 0.27905,-0.34882 0.66275,-0.45346 -0.48834,-0.36045 -1.23248,-0.36045 -1.7092,0 -2.95331,2.83704 l -1.67432,6.59262 q -0.0698,0.30231 -0.33719,0.52322 -0.26742,0.22092 -0.59298,0.22092 -0.27906,0 -0.48835,-0.19766 -0.19766,-0.18604 -0.19766,-0.45346 0,-0.11627 0.0233,-0.18604 l 1.79058,-7.15072 q 0.18604,-0.88367 0.18604,-1.279 0,-0.90692 -0.59299,-0.90692 -0.60461,0 -0.96505,0.91855 -0.34882,0.91855 -0.67438,2.2208 -0.0698,0.15115 -0.19766,0.15115 l -0.43021,0 q -0.0698,0 -0.1279,-0.0814 -0.0581,-0.093 -0.0581,-0.16278 z"
           inkscape:connector-curvature="0" />
        <path
           id="path4226"
           style="font-style:normal;font-variant:normal;font-weight:normal;font-stretch:normal;font-size:23.8125px;font-family:cmti10;-inkscape-font-specification:cmti10;fill:#cccccc;fill-opacity:1"
           d="m 273.84647,216.58682 q 0,-0.62787 0.33718,-1.08133 0.33719,-0.46508 0.94181,-0.46508 0.36044,0 0.59298,0.22091 0.24418,0.20929 0.24418,0.55811 0,0.48834 -0.36045,0.87204 -0.36044,0.37207 -0.82553,0.37207 0.19766,0.58136 0.82553,0.88366 0.62787,0.30231 1.33713,0.30231 1.18597,0 2.0929,-0.69763 0.90692,-0.70926 0.90692,-1.87198 0,-0.54648 -0.36045,-0.95343 -0.36044,-0.41858 -0.93017,-0.56973 l -1.25574,-0.26743 q -0.76739,-0.19766 -1.24411,-0.80227 -0.47671,-0.61625 -0.47671,-1.40689 0,-1.01157 0.52322,-1.8371 0.53485,-0.83716 1.39526,-1.29062 0.87204,-0.46509 1.89524,-0.46509 0.98831,0 1.7557,0.54648 0.7674,0.53485 0.7674,1.47665 0,0.53485 -0.29068,0.95343 -0.29068,0.40696 -0.80228,0.40696 -0.30231,0 -0.52322,-0.18604 -0.22092,-0.19766 -0.22092,-0.5116 0,-0.40695 0.27905,-0.69763 0.27906,-0.29068 0.65113,-0.32556 -0.13953,-0.5116 -0.62787,-0.77902 -0.47672,-0.26743 -1.03482,-0.26743 -0.59299,0 -1.12784,0.26743 -0.53485,0.26742 -0.86041,0.75577 -0.32556,0.48834 -0.32556,1.09295 0,0.40695 0.26742,0.75577 0.26743,0.33719 0.68601,0.44183 l 1.26736,0.27906 q 0.60461,0.13952 1.05808,0.49997 0.46508,0.36044 0.72088,0.88366 0.26743,0.52323 0.26743,1.13947 0,1.16272 -0.6395,2.10452 -0.62787,0.9418 -1.66269,1.4534 -1.03482,0.49997 -2.19754,0.49997 -1.17435,0 -2.11615,-0.59299 -0.93017,-0.59298 -0.93017,-1.69757 z"
           inkscape:connector-curvature="0" />
      </g>
    </g>
    <text
       xml:space="preserve"
       style="font-style:normal;font-weight:normal;font-size:10.58333397px;line-height:125%;font-family:sans-serif;letter-spacing:0px;word-spacing:0px;fill:#000000;fill-opacity:1;stroke:none;stroke-width:1px;stroke-linecap:butt;stroke-linejoin:miter;stroke-opacity:1"
       x="268.02292"
       y="226.35623"
       id="text6101"
       sodipodi:linespacing="125%"><tspan
         sodipodi:role="line"
         id="tspan6103"
         x="268.02292"
         y="226.35623" /></text>
    <text
       xml:space="preserve"
       style="font-style:normal;font-variant:normal;font-weight:bold;font-stretch:normal;font-size:2.9765625px;line-height:125%;font-family:sans-serif;-inkscape-font-specification:'sans-serif Bold';letter-spacing:0px;word-spacing:0px;fill:#5a5a5a;fill-opacity:1;stroke:none;stroke-width:1px;stroke-linecap:butt;stroke-linejoin:miter;stroke-opacity:1"
       x="-38.5784"
       y="271.07077"
       id="text4556"
       sodipodi:linespacing="125%"><tspan
         sodipodi:role="line"
         id="tspan4558"
         x="-38.5784"
         y="271.07077">WWW.INTERNALPOINTERS.COM</tspan></text>
  </g>
  <g
     inkscape:groupmode="layer"
     id="layer2"
     inkscape:label="selection"
     style="display:none">
    <rect
       style="color:#000000;clip-rule:nonzero;display:inline;overflow:visible;visibility:visible;opacity:1;isolation:auto;mix-blend-mode:normal;color-interpolation:sRGB;color-interpolation-filters:linearRGB;solid-color:#000000;solid-opacity:1;fill:#8d7b66;fill-opacity:0.25;fill-rule:nonzero;stroke:none;stroke-width:0.56899005px;stroke-linecap:butt;stroke-linejoin:miter;stroke-miterlimit:4;stroke-dasharray:none;stroke-dashoffset:0;stroke-opacity:1;color-rendering:auto;image-rendering:auto;shape-rendering:auto;text-rendering:auto;enable-background:accumulate"
       id="rect6149"
       width="4.2333336"
       height="4.2333336"
       x="217.75211"
       y="235.47917"
       inkscape:export-xdpi="90"
       inkscape:export-ydpi="90" />
    <rect
       y="231.24583"
       x="228.33542"
       height="8.4666672"
       width="8.4666672"
       id="rect6169"
       style="color:#000000;clip-rule:nonzero;display:inline;overflow:visible;visibility:visible;opacity:1;isolation:auto;mix-blend-mode:normal;color-interpolation:sRGB;color-interpolation-filters:linearRGB;solid-color:#000000;solid-opacity:1;fill:#8d7b66;fill-opacity:0.25;fill-rule:nonzero;stroke:none;stroke-width:0.56899005px;stroke-linecap:butt;stroke-linejoin:miter;stroke-miterlimit:4;stroke-dasharray:none;stroke-dashoffset:0;stroke-opacity:1;color-rendering:auto;image-rendering:auto;shape-rendering:auto;text-rendering:auto;enable-background:accumulate"
       inkscape:export-xdpi="90"
       inkscape:export-ydpi="90" />
    <rect
       style="color:#000000;clip-rule:nonzero;display:inline;overflow:visible;visibility:visible;opacity:1;isolation:auto;mix-blend-mode:normal;color-interpolation:sRGB;color-interpolation-filters:linearRGB;solid-color:#000000;solid-opacity:1;fill:#8d7b66;fill-opacity:0.25;fill-rule:nonzero;stroke:none;stroke-width:0.56899005px;stroke-linecap:butt;stroke-linejoin:miter;stroke-miterlimit:4;stroke-dasharray:none;stroke-dashoffset:0;stroke-opacity:1;color-rendering:auto;image-rendering:auto;shape-rendering:auto;text-rendering:auto;enable-background:accumulate"
       id="rect6173"
       width="12.700001"
       height="12.700001"
       x="244.2104"
       y="227.0125"
       inkscape:export-xdpi="90"
       inkscape:export-ydpi="90" />
    <rect
       y="222.77916"
       x="265.37708"
       height="16.933334"
       width="16.933334"
       id="rect6177"
       style="color:#000000;clip-rule:nonzero;display:inline;overflow:visible;visibility:visible;opacity:1;isolation:auto;mix-blend-mode:normal;color-interpolation:sRGB;color-interpolation-filters:linearRGB;solid-color:#000000;solid-opacity:1;fill:#8d7b66;fill-opacity:0.25;fill-rule:nonzero;stroke:none;stroke-width:0.56899005px;stroke-linecap:butt;stroke-linejoin:miter;stroke-miterlimit:4;stroke-dasharray:none;stroke-dashoffset:0;stroke-opacity:1;color-rendering:auto;image-rendering:auto;shape-rendering:auto;text-rendering:auto;enable-background:accumulate"
       inkscape:export-xdpi="90"
       inkscape:export-ydpi="90" />
    <rect
       inkscape:export-ydpi="90"
       inkscape:export-xdpi="90"
       style="color:#000000;clip-rule:nonzero;display:inline;overflow:visible;visibility:visible;opacity:1;isolation:auto;mix-blend-mode:normal;color-interpolation:sRGB;color-interpolation-filters:linearRGB;solid-color:#000000;solid-opacity:1;fill:#8d7b66;fill-opacity:0.25;fill-rule:nonzero;stroke:none;stroke-width:0.56899005px;stroke-linecap:butt;stroke-linejoin:miter;stroke-miterlimit:4;stroke-dasharray:none;stroke-dashoffset:0;stroke-opacity:1;color-rendering:auto;image-rendering:auto;shape-rendering:auto;text-rendering:auto;enable-background:accumulate"
       id="rect6181"
       width="40.216667"
       height="40.216667"
       x="291.83551"
       y="199.49582" />
  </g>
</svg>
