<?xml version="1.0" encoding="UTF-8" standalone="no"?>
<!-- Created with Inkscape (http://www.inkscape.org/) -->
<svg id="svg3129" xmlns:rdf="http://www.w3.org/1999/02/22-rdf-syntax-ns#" xmlns="http://www.w3.org/2000/svg" height="100" width="100" version="1.1" xmlns:cc="http://creativecommons.org/ns#" xmlns:dc="http://purl.org/dc/elements/1.1/">
<defs id="defs9">
<filter id="filter3003" height="1" width="1" color-interpolation-filters="sRGB" y="0" x="0">
<feColorMatrix id="feColorMatrix3005" values="0" type="saturate"/>
</filter>
</defs>
<metadata id="metadata3134">
<rdf:RDF>
<cc:Work rdf:about="">
<dc:format>image/svg+xml</dc:format>
<dc:type rdf:resource="http://purl.org/dc/dcmitype/StillImage"/>
<dc:title/>
</cc:Work>
</rdf:RDF>
</metadata>
<path id="path3125" fill-rule="nonzero" fill="#6ba9ce" d="m80.308,36.483c0,39.132-39.255,54.883-64.819,37.679,0,0,12.117,1.5752,21.808-6.1789l-14.053-10.298s4.4827,0.72707,6.906-0.36466c0,0-11.389-2.4218-11.994-14.78,0,0,1.9383,2.1805,6.906,1.9376,0,0-10.905-6.6632-4.7256-20.232,0,0,11.941,16.798,30.652,15.749-2.3015-8.9647,3.9985-15.871,9.3293-17.567,5.3308-1.6962,12.115-0.36316,16.114,3.9977,0,0,5.9361-1.4534,9.5714-3.6346,0,0-2.0602,5.815-6.785,8.1173,0,0,3.7564-0.12105,8.7226-2.3023,0,0-2.9068,4.3624-7.6316,7.8759m19.692-33.348c0-1.7308-1.402-3.1338-3.132-3.1338h-93.737c-1.7293,0-3.1323,1.403-3.1323,3.1338v93.729c0,1.7308,1.403,3.1338,3.1323,3.1338h93.737c1.7301,0,3.1323-1.403,3.1323-3.1338v-93.729z"/>
<path id="path2989" d="m80.308,36.483c0,39.132-39.255,54.883-64.819,37.679,0,0,12.117,1.5752,21.808-6.1789l-14.053-10.298s4.4827,0.72707,6.906-0.36466c0,0-11.389-2.4218-11.994-14.78,0,0,1.9383,2.1805,6.906,1.9376,0,0-10.905-6.6632-4.7256-20.232,0,0,11.941,16.798,30.652,15.749-2.3015-8.9647,3.9985-15.871,9.3293-17.567,5.3308-1.6962,12.115-0.36316,16.114,3.9977,0,0,5.9361-1.4534,9.5714-3.6346,0,0-2.0602,5.815-6.785,8.1173,0,0,3.7564-0.12105,8.7226-2.3023,0,0-2.9068,4.3624-7.6316,7.8759m19.692-33.348c0-1.7308-1.402-3.1338-3.132-3.1338h-93.737c-1.7293,0-3.1323,1.403-3.1323,3.1338v93.729c0,1.7308,1.403,3.1338,3.1323,3.1338h93.737c1.7301,0,3.1323-1.403,3.1323-3.1338v-93.729z" fill-rule="nonzero" fill="#6ba9ce"/>
<path id="path2991" fill-rule="nonzero" fill="#6ba9ce" d="m80.308,36.483c0,39.132-39.255,54.883-64.819,37.679,0,0,12.117,1.5752,21.808-6.1789l-14.053-10.298s4.4827,0.72707,6.906-0.36466c0,0-11.389-2.4218-11.994-14.78,0,0,1.9383,2.1805,6.906,1.9376,0,0-10.905-6.6632-4.7256-20.232,0,0,11.941,16.798,30.652,15.749-2.3015-8.9647,3.9985-15.871,9.3293-17.567,5.3308-1.6962,12.115-0.36316,16.114,3.9977,0,0,5.9361-1.4534,9.5714-3.6346,0,0-2.0602,5.815-6.785,8.1173,0,0,3.7564-0.12105,8.7226-2.3023,0,0-2.9068,4.3624-7.6316,7.8759m19.692-33.348c0-1.7308-1.402-3.1338-3.132-3.1338h-93.737c-1.7293,0-3.1323,1.403-3.1323,3.1338v93.729c0,1.7308,1.403,3.1338,3.1323,3.1338h93.737c1.7301,0,3.1323-1.403,3.1323-3.1338v-93.729z"/>
<path id="path2993" d="m80.308,36.483c0,39.132-39.255,54.883-64.819,37.679,0,0,12.117,1.5752,21.808-6.1789l-14.053-10.298s4.4827,0.72707,6.906-0.36466c0,0-11.389-2.4218-11.994-14.78,0,0,1.9383,2.1805,6.906,1.9376,0,0-10.905-6.6632-4.7256-20.232,0,0,11.941,16.798,30.652,15.749-2.3015-8.9647,3.9985-15.871,9.3293-17.567,5.3308-1.6962,12.115-0.36316,16.114,3.9977,0,0,5.9361-1.4534,9.5714-3.6346,0,0-2.0602,5.815-6.785,8.1173,0,0,3.7564-0.12105,8.7226-2.3023,0,0-2.9068,4.3624-7.6316,7.8759m19.692-33.348c0-1.7308-1.402-3.1338-3.132-3.1338h-93.737c-1.7293,0-3.1323,1.403-3.1323,3.1338v93.729c0,1.7308,1.403,3.1338,3.1323,3.1338h93.737c1.7301,0,3.1323-1.403,3.1323-3.1338v-93.729z" fill-rule="nonzero" fill="#6ba9ce"/>
<path id="path2995" d="m80.308,36.483c0,39.132-39.255,54.883-64.819,37.679,0,0,12.117,1.5752,21.808-6.1789l-14.053-10.298s4.4827,0.72707,6.906-0.36466c0,0-11.389-2.4218-11.994-14.78,0,0,1.9383,2.1805,6.906,1.9376,0,0-10.905-6.6632-4.7256-20.232,0,0,11.941,16.798,30.652,15.749-2.3015-8.9647,3.9985-15.871,9.3293-17.567,5.3308-1.6962,12.115-0.36316,16.114,3.9977,0,0,5.9361-1.4534,9.5714-3.6346,0,0-2.0602,5.815-6.785,8.1173,0,0,3.7564-0.12105,8.7226-2.3023,0,0-2.9068,4.3624-7.6316,7.8759m19.692-33.348c0-1.7308-1.402-3.1338-3.132-3.1338h-93.737c-1.7293,0-3.1323,1.403-3.1323,3.1338v93.729c0,1.7308,1.403,3.1338,3.1323,3.1338h93.737c1.7301,0,3.1323-1.403,3.1323-3.1338v-93.729z" fill-rule="nonzero" filter="url(#filter3003)" fill="#6ba9ce"/>
<path id="rect2999" fill="#FFF" d="M64.531,21.719c-1.448,0.045-2.886,0.294-4.219,0.719-5.33,1.695-11.614,8.597-9.312,17.562-18.711,1.049-30.656-15.75-30.656-15.75-6.179,13.568,4.718,20.219,4.718,20.219-4.9677,0.24286-6.9062-1.9375-6.9062-1.9375,0.60526,12.358,12,14.781,12,14.781-2.4233,1.0917-6.9062,0.375-6.9062,0.375l14.062,10.281c-9.691,7.754-21.812,6.187-21.812,6.187,25.564,17.204,64.812,1.4448,64.812-37.688,4.7248-3.5135,7.625-7.875,7.625-7.875-4.9662,2.1812-8.7188,2.3125-8.7188,2.3125,4.726-2.302,6.782-8.125,6.782-8.125-3.635,2.181-9.562,3.657-9.562,3.657-2.999-3.271-7.562-4.856-11.907-4.719z"/>
</svg>
